<svg width="496" height="448.002" viewBox="0 31.998 496 448.002">
  <g>
	   <path fill="#7E7485" d="M292.688,219.328c-6.25-6.25-6.25-16.375,0-22.625c6.266-6.266,16.375-6.266,22.641,0   c6.25,6.25,6.25,16.375,0,22.625C309.062,225.578,298.953,225.578,292.688,219.328z M244.687,244.688   c-6.25,6.25-6.25,16.375,0,22.625c6.266,6.25,16.375,6.25,22.641,0c6.25-6.25,6.25-16.375,0-22.625   C261.062,238.422,250.953,238.422,244.687,244.688z M276.688,308.688c-6.25,6.25-6.25,16.375,0,22.625   c6.266,6.25,16.375,6.25,22.641,0c6.25-6.25,6.25-16.375,0-22.625C293.062,302.422,282.953,302.422,276.688,308.688z    M308.688,372.688c-6.25,6.25-6.25,16.375,0,22.625c6.266,6.25,16.375,6.25,22.641,0c6.25-6.25,6.25-16.375,0-22.625   C325.062,366.422,314.953,366.422,308.688,372.688z M340.688,267.312c6.266,6.25,16.375,6.25,22.641,0   c6.25-6.25,6.25-16.375,0-22.625c-6.266-6.266-16.375-6.266-22.641,0C334.438,250.938,334.438,261.062,340.688,267.312z    M388.688,292.703c-6.25,6.25-6.25,16.375,0,22.625s16.375,6.25,22.625,0s6.25-16.375,0-22.625   C405.062,286.438,394.938,286.438,388.688,292.703z M363.312,171.313c6.25-6.266,6.25-16.375,0-22.641   c-6.25-6.25-16.375-6.25-22.625,0c-6.267,6.266-6.267,16.375,0,22.641C346.938,177.563,357.062,177.563,363.312,171.313z    M427.312,203.313c6.25-6.266,6.25-16.375,0-22.641c-6.25-6.25-16.375-6.25-22.625,0c-6.267,6.266-6.267,16.375,0,22.641   C410.938,209.563,421.062,209.563,427.312,203.313z M468.688,212.672c-6.267,6.266-6.267,16.375,0,22.641   c6.25,6.25,16.375,6.25,22.625,0c6.25-6.266,6.25-16.375,0-22.641C485.062,206.422,474.938,206.422,468.688,212.672z M0,144v320   c0,8.844,7.156,16,16,16h16c8.844,0,16-7.156,16-16V142.406c0-35.297,28.719-64,64-64c9.953,0,19.266,2.484,27.672,6.547   l-7.078,7.078c-6.125,6.125-6.125,16.062,0,22.188l11.125,11.125c-19.891,38.906-21.751,81.5-1.438,115.875L337.062,46.422   c-34.281-20.266-76.812-18.453-115.656,1.328l-11.186-11.172c-6.125-6.109-16.062-6.109-22.188,0.016l-14.096,14.109   C156.188,38.906,134.906,32,112,32C50.141,32,0,82.141,0,144z M146.5,263.998c-3.344,3.328-3.344,8.75,0,12.094l9.391,9.393   c1.609,1.594,3.768,2.5,6.047,2.5c2.266,0,4.438-0.906,6.031-2.5L381.5,71.984c3.328-3.328,3.328-8.75,0-12.078l-9.406-9.406   c-1.593-1.594-3.765-2.5-6.031-2.5c-2.28,0-4.438,0.906-6.047,2.5L146.5,263.998z"/>
  </g>
</svg>
