<svg width="512" height="512" viewBox="0 0 286.375 286.375">
  <g>
		<path style="fill-rule:evenodd;clip-rule:evenodd;" d="M257.735,44.746H28.63C12.821,44.746,0,57.339,0,72.87v140.635    c0,15.53,12.821,28.124,28.63,28.124h229.105c15.819,0,28.64-12.594,28.64-28.124V72.87    C286.375,57.339,273.554,44.746,257.735,44.746z M53.696,100.233c0-19.323,14.595-28.639,26.821-28.639    c12.646,0,26.821,9.316,26.821,28.639v14.315c0,19.332-19.646,28.639-26.821,28.639c-6.799,0-26.821-9.307-26.821-28.639V100.233z     M134.237,196.883c0,12.987-4.369,17.898-17.897,17.898H44.755c-13.529,0-17.899-4.911-17.899-17.898c-0.018-0.14,0-8.792,0-8.95    c0-9.832,4.484-23.693,20.363-34.425c6.581-4.448,14.909,2.727,24.383,11.073l2.614,2.614c0.087,0.087,2.971,2.84,6.406,2.84    c3.486,0,6.283-2.871,6.283-2.871v0.005l2.587-2.588c9.474-8.345,16.64-15.381,24.383-11.073    c16.745,9.317,20.362,24.594,20.362,34.425C134.237,188.091,134.256,196.743,134.237,196.883z M250.578,196.883h-80.543    c-4.946,0-8.948-4.008-8.948-8.95c0-4.942,4.002-8.949,8.948-8.949h80.543c4.946,0,8.948,4.007,8.948,8.949    C259.527,192.875,255.524,196.883,250.578,196.883z M250.578,152.137h-80.543c-4.946,0-8.948-4.007-8.948-8.95    c0-4.942,4.002-8.949,8.948-8.949h80.543c4.946,0,8.948,4.007,8.948,8.949C259.527,148.129,255.524,152.137,250.578,152.137z     M250.578,107.391h-80.543c-4.946,0-8.948-4.008-8.948-8.95c0-4.942,4.002-8.949,8.948-8.949h80.543    c4.946,0,8.948,4.007,8.948,8.949C259.527,103.383,255.524,107.391,250.578,107.391z" fill="#A97A60"/>
	</g>
</svg>
