<svg width="512" height="512" viewBox="0 0 512.007 512.007">
  <g>
    <path d="M501.351,223.886h-53.345c-5.891,0-10.656,4.773-10.656,10.665c0,5.891,4.766,10.664,10.656,10.664h53.345    c5.891,0,10.656-4.773,10.656-10.664C512.007,228.66,507.241,223.886,501.351,223.886z" fill="#5396B5"/>
		<path d="M501.351,159.884c-1.406,0-2.734,0.273-3.969,0.766v-0.008l-0.172,0.078c-0.016,0-0.016,0-0.016,0l-53.142,21.258v0.008    c-3.922,1.57-6.703,5.406-6.703,9.898c0.001,5.891,4.766,10.665,10.657,10.665c1.406,0,2.734-0.273,3.969-0.766l0.172-0.062    c0-0.008,0.016-0.008,0.031-0.016l53.126-21.25v-0.008c3.938-1.57,6.703-5.406,6.703-9.898    C512.007,164.658,507.241,159.884,501.351,159.884z" fill="#5396B5"/>
		<path d="M394.677,178.127V85.211c0-5.891-4.781-10.664-10.672-10.664c-5.875,0-10.656,4.773-10.656,10.664v6.407l-192.003,57.594    H64c-5.875,0-10.656,4.782-10.656,10.672v21.329h-32c-5.891,0-10.672,4.781-10.672,10.672v21.328    C4.781,213.213,0,217.995,0,223.885v21.329c0,5.891,4.781,10.672,10.672,10.672v21.336c0,5.891,4.781,10.656,10.672,10.656h32    v21.345c0,5.891,4.781,10.656,10.656,10.656h15.094l27.579,117.58h96.001l-26.61-76.392c3.156-1.844,5.281-5.25,5.281-9.188    c0-3.719-1.906-7-4.812-8.906l10.375-21.423l186.44,55.938v6.391c0,5.906,4.781,10.672,10.656,10.672    c5.891,0,10.672-4.766,10.672-10.672v-94.908c19.126-11.062,32.001-31.734,32.001-55.422    C426.678,209.861,413.803,189.191,394.677,178.127z M53.344,266.55H32v-64.001h21.344V266.55z M123.595,416.13L123.595,416.13    l-22.578-96.251h62.985l-10.594,21.938l-3.86,7.969l2.907,8.344l20.203,58H123.595z M181.345,298.55H74.672V170.55h106.673V298.55    z M373.348,355.223l-170.674-51.22v-15.047l0.203-0.391h-0.203V165.087l170.674-51.196V355.223z M394.677,261.722v-56.353    c6.642,7.523,10.673,17.383,10.673,28.181C405.35,244.339,401.318,254.206,394.677,261.722z" fill="#5396B5"/>
		<path d="M505.304,288.659l-53.126-21.266c-0.016-0.008-0.031-0.008-0.031-0.016l-0.172-0.062v0.008    c-1.234-0.492-2.562-0.773-3.969-0.773c-5.891,0-10.656,4.773-10.656,10.672c0,4.484,2.781,8.312,6.703,9.906l53.126,21.251    c0.016,0,0.031,0,0.047,0.016l0.156,0.062v-0.016c1.234,0.5,2.562,0.781,3.969,0.781c5.891,0,10.656-4.782,10.656-10.673    C512.007,294.065,509.241,290.222,505.304,288.659z" fill="#5396B5"/>
  </g>
</svg>
