<svg width="512" height="512" viewBox="0 0 65.403 65.402">
  <g>
  	<g>
  		<path d="M50.654,24.878c-0.767-0.441-1.651-0.677-2.566-0.677c-0.319,0-0.664,0.04-1.088,0.122l-1.549,0.299l0.166-1.569    c0.408-3.796-1.412-7.01-4.42-7.816c-0.452-0.124-0.917-0.183-1.385-0.183c-2.078,0-4.154,1.243-5.555,3.332l-0.969,1.44    l-0.97-1.44c-1.402-2.086-3.475-3.332-5.554-3.332c-0.468,0-0.932,0.059-1.382,0.183c-3.011,0.807-4.829,4.021-4.424,7.816    l0.167,1.569l-1.549-0.299c-0.424-0.083-0.771-0.122-1.09-0.122c-0.911,0-1.798,0.236-2.567,0.677    c-1.48,0.855-2.443,2.438-2.637,4.335c-0.171,1.646,0.241,3.423,1.154,5.002c1.139,1.98,2.913,3.39,4.863,3.873l1.251,0.306    l-0.432,1.219c-0.56,1.583-0.845,3.187-0.845,4.768c0,1.952,0.31,3.344,0.979,4.379c0.804,1.241,2.065,1.898,3.646,1.898    c1.266,0,2.619-0.429,4.05-0.881c1.725-0.543,3.495-1.106,5.342-1.106c1.848,0,3.616,0.562,5.329,1.102    c1.441,0.454,2.797,0.886,4.064,0.886c2.108,0,4.622-1.091,4.622-6.28c0-1.585-0.285-3.187-0.849-4.768l-0.432-1.216l1.255-0.31    c1.95-0.483,3.723-1.894,4.863-3.869c0.912-1.582,1.325-3.357,1.152-5.002C53.099,27.317,52.136,25.736,50.654,24.878z     M35.179,21.898c0.81-3.016,3.229-4.992,5.41-4.408s3.292,3.507,2.482,6.525c-0.811,3.016-3.23,4.991-5.411,4.407    S34.369,24.916,35.179,21.898z M25.981,17.49c2.182-0.584,4.604,1.393,5.412,4.408c0.809,3.018-0.304,5.939-2.483,6.523    c-2.18,0.584-4.604-1.391-5.412-4.407C22.69,20.997,23.8,18.074,25.981,17.49z M16.456,33.048    c-1.382-2.393-1.105-5.147,0.63-6.146c1.736-1,4.257,0.133,5.639,2.53c1.384,2.394,1.105,5.149-0.628,6.148    C20.363,36.579,17.839,35.448,16.456,33.048z M33.286,46.338c-6.452,0-11.679,5.574-11.679-1.957    c0-7.532,7.491-13.639,11.679-13.637c4.188,0.002,11.679,6.104,11.679,13.637C44.964,51.912,39.737,46.338,33.286,46.338z     M50.116,33.048c-1.383,2.397-3.908,3.531-5.642,2.532c-1.731-0.999-2.01-3.752-0.627-6.148c1.382-2.396,3.905-3.53,5.639-2.53    C51.219,27.901,51.498,30.655,50.116,33.048z" fill="#A97A60"/>
  		<path d="M32.702,0C14.641,0,0,14.641,0,32.701c0,18.062,14.639,32.701,32.702,32.701c18.062,0,32.701-14.64,32.701-32.701    C65.403,14.641,50.763,0,32.702,0z M53.149,34.8c-1.318,2.293-3.376,3.873-5.598,4.421c0.579,1.629,0.917,3.362,0.917,5.16    c0,6.72-4.047,7.445-5.789,7.445c-1.446,0-2.888-0.454-4.416-0.936c-1.624-0.516-3.311-1.047-4.978-1.047    c-1.667,0-3.352,0.536-4.978,1.047c-1.526,0.481-2.966,0.936-4.415,0.936c-1.968,0-3.611-0.862-4.625-2.432    c-0.794-1.229-1.166-2.824-1.166-5.012c0-1.8,0.336-3.531,0.913-5.16c-2.219-0.545-4.272-2.126-5.594-4.423    c-1.034-1.788-1.5-3.812-1.306-5.7c0.234-2.278,1.406-4.184,3.216-5.228c0.943-0.544,2.035-0.834,3.151-0.834    c0.439,0,0.878,0.059,1.312,0.143c-0.458-4.289,1.656-8.098,5.281-9.067c0.547-0.147,1.117-0.221,1.687-0.221    c2.556,0,4.943,1.492,6.524,3.844c1.582-2.354,3.969-3.844,6.524-3.844c0.57,0,1.138,0.072,1.686,0.221    c3.627,0.97,5.743,4.779,5.283,9.067c0.436-0.081,0.871-0.143,1.312-0.143c1.115,0,2.205,0.29,3.149,0.834    c1.812,1.044,2.984,2.953,3.217,5.228C54.65,30.987,54.185,33.012,53.149,34.8z" fill="#A97A60"/>
  	</g>
  </g>
</svg>
