<svg width="123.547" height="123.539" viewBox="10 10 95 95">
  <g>
  	<path d="M45.781,80.559c3.766,0,6.812-3.055,6.812-6.812s-3.047-6.805-6.812-6.805c-3.758,0-6.812,3.047-6.812,6.805   S42.023,80.559,45.781,80.559z" fill="#62919C"/>
  	<path d="M103.188,70.84c2.977,0,5.398,2.391,5.422,5.367l0.023,14.312H66.352V70.84H103.188z" fill="#62919C"/>
  	<polygon points="20.93,104.332 108.656,104.332 108.656,95.23 30.039,95.23 30.039,60.738 108.656,25.215 108.656,15.77 11.141,59.785 11.141,69.262 20.93,64.863" fill="#62919C"/>
  	<path d="M55.938,83.801H43.719c-1.852,0-3.352,1.516-3.352,3.375c0,1.828,1.5,3.344,3.352,3.344h15.555   c1.852,0,3.359-1.516,3.359-3.344V73.691c0-1.852-1.508-3.344-3.359-3.344c-1.844,0-3.344,1.492-3.344,3.344L55.938,83.801z" fill="#62919C"/>
  </g>
</svg>
