<svg version="1.1" id="Capa_1" xmlns="http://www.w3.org/2000/svg" xmlns:xlink="http://www.w3.org/1999/xlink" x="0px" y="0px"
	 viewBox="0 0 512 512" style="enable-background:new 0 0 512 512;" xml:space="preserve">
 <!-- Created with Method Draw - http://github.com/duopixel/Method-Draw/ -->
 <g>
  <path stroke="#000" id="svg_1" d="m34.446167,115.468132c0,-17.727862 13.69863,-32.625224 30,-32.625224l390,0c16.30137,0 30,14.897363 30,32.625224l0,282.751942c0,17.727862 -13.69863,32.625224 -30,32.625224l-390,0c-16.30137,0 -30,-14.897363 -30,-32.625224l0,-282.751942z" stroke-opacity="null" stroke-linecap="null" stroke-linejoin="null" stroke-width="1.5" fill-opacity="null" fill="#000000"/>
  <rect id="svg_2" height="0" width="1" y="70.453125" x="876.5" stroke-width="1.5" stroke="#000" fill="#fff"/>
  <path id="svg_3" d="m225.445999,177.457458c0,-5.43379 4.56621,-10 10,-10l50,0c5.43379,0 10,4.56621 10,10l0,160c0,5.43379 -4.56621,10 -10,10l-50,0c-5.43379,0 -10,-4.56621 -10,-10l0,-160z" stroke-opacity="null" stroke-linecap="null" stroke-linejoin="null" stroke-width="0" stroke="#000" fill-opacity="null" fill="#ffffff"/>
  <path id="svg_6" d="m226.445998,178.457458c0,-5.43379 4.56621,-10 10,-10l50,0c5.43379,0 10,4.56621 10,10l0,160c0,5.43379 -4.56621,10 -10,10l-50,0c-5.43379,0 -10,-4.56621 -10,-10l0,-160z" transform="rotate(90 261.44598388671875,258.4574584960938) " stroke-opacity="null" stroke-linecap="null" stroke-linejoin="null" stroke-width="0" stroke="#000" fill="#ffffff"/>
 </g>
</svg>