<?xml version="1.0" encoding="iso-8859-1"?>
<!-- Generator: Adobe Illustrator 19.0.0, SVG Export Plug-In . SVG Version: 6.00 Build 0)  -->
<svg version="1.1" id="Capa_1" xmlns="http://www.w3.org/2000/svg" xmlns:xlink="http://www.w3.org/1999/xlink" x="0px" y="0px"
	 viewBox="0 0 511.996 511.996" style="enable-background:new 0 0 511.996 511.996;" xml:space="preserve">
<path style="fill:#455A64;" d="M502.722,130.444C364.32-0.825,147.367-0.74,9.068,130.636c-5.847,5.847-9.112,13.79-9.067,22.059
	c-0.083,8.22,3.191,16.118,9.067,21.867l50.667,50.709c12.236,11.386,31.127,11.589,43.605,0.469
	c15.49-14.397,32.935-26.535,51.819-36.053c10.304-6.252,16.28-17.711,15.509-29.739V103.82c27.994-6.24,56.67-8.885,85.333-7.872
	c28.668-1.082,57.354,1.579,85.333,7.915v56.085c-1.052,12.039,4.841,23.626,15.189,29.867
	c18.991,9.439,36.516,21.575,52.032,36.032c5.875,5.473,13.603,8.521,21.632,8.533c8.269,0.045,16.212-3.22,22.059-9.067
	l50.688-50.688c12.164-12.308,12.068-32.14-0.213-44.331L502.722,130.444z"/>
<path style="fill:#455A64;" d="M456.94,335.222c-0.454-0.887-1.021-1.711-1.685-2.453L338.519,205.964
	c-2.037-2.16-4.882-3.374-7.851-3.349H181.335c-2.982-0.003-5.829,1.243-7.851,3.435L56.748,332.748
	c-0.665,0.742-1.231,1.567-1.685,2.453c-8.134,16.307-12.376,34.278-12.395,52.501v81.579c0,5.891,4.776,10.667,10.667,10.667
	h405.333c5.891,0,10.667-4.776,10.667-10.667v-81.493C469.327,369.543,465.084,351.549,456.94,335.222z"/>
<g>
	<path style="fill:#FAFAFA;" d="M206.188,330.614h-24.853c-5.891,0-10.667,4.776-10.667,10.667c0,5.891,4.776,10.667,10.667,10.667
		h24.853c5.891,0,10.667-4.776,10.667-10.667C216.855,335.39,212.079,330.614,206.188,330.614z"/>
	<path style="fill:#FAFAFA;" d="M269.036,330.614h-26.603c-5.891,0-10.667,4.776-10.667,10.667c0,5.891,4.776,10.667,10.667,10.667
		h26.603c5.891,0,10.667-4.776,10.667-10.667C279.703,335.39,274.927,330.614,269.036,330.614z"/>
	<path style="fill:#FAFAFA;" d="M330.668,330.614h-24.363c-5.891,0-10.667,4.776-10.667,10.667c0,5.891,4.776,10.667,10.667,10.667
		h24.363c5.891,0,10.667-4.776,10.667-10.667C341.335,335.39,336.559,330.614,330.668,330.614z"/>
	<path style="fill:#FAFAFA;" d="M213.335,287.948h-21.333c-5.891,0-10.667,4.776-10.667,10.667s4.776,10.667,10.667,10.667h21.333
		c5.891,0,10.667-4.776,10.667-10.667S219.226,287.948,213.335,287.948z"/>
	<path style="fill:#FAFAFA;" d="M245.335,309.281h21.333c5.891,0,10.667-4.776,10.667-10.667s-4.776-10.667-10.667-10.667h-21.333
		c-5.891,0-10.667,4.776-10.667,10.667S239.444,309.281,245.335,309.281z"/>
	<path style="fill:#FAFAFA;" d="M320.002,309.281c5.891,0,10.667-4.776,10.667-10.667s-4.776-10.667-10.667-10.667h-21.333
		c-5.891,0-10.667,4.776-10.667,10.667s4.776,10.667,10.667,10.667H320.002z"/>
	<path style="fill:#FAFAFA;" d="M213.335,245.281h-10.667c-5.891,0-10.667,4.776-10.667,10.667s4.776,10.667,10.667,10.667h10.667
		c5.891,0,10.667-4.776,10.667-10.667S219.226,245.281,213.335,245.281z"/>
	<path style="fill:#FAFAFA;" d="M250.668,266.614h10.667c5.891,0,10.667-4.776,10.667-10.667s-4.776-10.667-10.667-10.667h-10.667
		c-5.891,0-10.667,4.776-10.667,10.667S244.777,266.614,250.668,266.614z"/>
	<path style="fill:#FAFAFA;" d="M298.668,266.614h10.667c5.891,0,10.667-4.776,10.667-10.667s-4.776-10.667-10.667-10.667h-10.667
		c-5.891,0-10.667,4.776-10.667,10.667S292.777,266.614,298.668,266.614z"/>
</g>
<g>
	<path style="fill:#455A64;" d="M202.668,223.948c-5.891,0-10.667-4.776-10.667-10.667v-42.667c0-5.891,4.776-10.667,10.667-10.667
		s10.667,4.776,10.667,10.667v42.667C213.335,219.172,208.559,223.948,202.668,223.948z"/>
	<path style="fill:#455A64;" d="M309.335,223.948c-5.891,0-10.667-4.776-10.667-10.667v-42.667c0-5.891,4.776-10.667,10.667-10.667
		s10.667,4.776,10.667,10.667v42.667C320.002,219.172,315.226,223.948,309.335,223.948z"/>
</g>
<g>
</g>
<g>
</g>
<g>
</g>
<g>
</g>
<g>
</g>
<g>
</g>
<g>
</g>
<g>
</g>
<g>
</g>
<g>
</g>
<g>
</g>
<g>
</g>
<g>
</g>
<g>
</g>
<g>
</g>
</svg>
