<svg width="512" height="512" viewBox="0 0 440.001 440.001">
  <g>
    <path d="M439.213,382.709l-27.329-109.314c-0.425-1.705-1.093-3.297-1.94-4.76c1.562-4.334,2.42-9.004,2.42-13.869V74.571     c0-22.595-18.382-40.979-40.979-40.979H68.601c-22.599,0-40.981,18.383-40.981,40.979v180.193c0,4.866,0.857,9.536,2.423,13.87     c-0.849,1.464-1.52,3.054-1.945,4.759L0.548,383.589c-1.371,5.486-0.138,11.3,3.343,15.756c3.48,4.458,8.82,7.064,14.477,7.064     h403.249c0.006,0,0.013,0,0.017,0c10.146,0,18.367-8.225,18.367-18.367C440,386.188,439.725,384.397,439.213,382.709z      M266.537,377.695c-0.004,0-0.009,0.002-0.016,0h-93.061c-1.074,0-2.094-0.477-2.781-1.301c-0.689-0.822-0.978-1.91-0.787-2.969     l7.252-40.245c0.311-1.728,1.814-2.982,3.568-2.982h78.559c1.754,0,3.257,1.256,3.566,2.982l7.192,39.923     c0.085,0.309,0.131,0.632,0.131,0.966C270.163,376.073,268.539,377.695,266.537,377.695z M376.57,254.766     c0,2.094-1.25,3.897-3.04,4.717H66.452c-1.792-0.818-3.043-2.623-3.043-4.717V74.571c0-2.861,2.329-5.188,5.191-5.188h302.783     c2.859,0,5.188,2.327,5.188,5.188L376.57,254.766L376.57,254.766z" fill="#CB769E"/>
    <path d="M229.972,157.081l11.472-3.129c2.271-0.619,3.889-2.631,4-4.984c0.114-2.353-1.302-4.511-3.502-5.346l-52.898-20.064     c-2-0.758-4.26-0.273-5.773,1.239c-1.514,1.513-1.998,3.772-1.24,5.773l20.064,52.898c0.836,2.202,2.994,3.617,5.346,3.503     c2.354-0.113,4.365-1.728,4.984-4l3.129-11.472l26.766,26.763c2.123,2.124,5.564,2.124,7.688,0l6.729-6.728     c2.123-2.124,2.123-5.566,0-7.69L229.972,157.081z" fill="#CB769E"/>
  </g>
</svg>
