<svg height="512pt" viewBox="-2 0 511 512" width="512pt" xmlns="http://www.w3.org/2000/svg">
  <path d="m253.710938 86.773438s-111.203126 111.203124-175.480469 175.480468v242.246094h24.296875l284.453125-284.453125zm0 0" fill="#ffb655"/>
  <path d="m102.527344 504.5h326.660156v-242.246094l-42.207031-42.207031zm0 0" fill="#57a4ff"/>
  <path d="m253.710938 86.773438 204.519531 204.523437 38.085937-38.085937-242.605468-242.605469-242.605469 242.605469 38.085937 38.085937zm0 0" fill="#ff3f62"/>
  <path d="m233.863281 282.308594c0 24.851562-20.144531 45-45 45-24.851562 0-45-20.148438-45-45 0-24.855469 20.148438-45.003906 45-45.003906 24.855469 0 45 20.148437 45 45.003906zm0 0" fill="#ffe477"/>
  <path d="m253.710938 0-253.210938 253.210938 48.691406 48.691406 204.519532-204.519532 204.519531 204.519532 48.691406-48.691406zm0 76.167969-204.519532 204.519531-27.480468-27.476562 232-231.996094 231.996093 231.996094-27.476562 27.476562zm0 0"/>
  <path d="m421.6875 497h-335.957031v-204.746094h-15v219.746094h365.957031v-219.746094h-15zm0 0"/>
  <path d="m113.210938 274.808594v15h23.683593c1.277344 8.882812 4.785157 17.050781 9.9375 23.921875l-16.765625 16.765625 10.609375 10.605468 16.761719-16.761718c6.871094 5.152344 15.042969 8.65625 23.925781 9.933594v23.683593h15v-23.683593c8.882813-1.277344 17.054688-4.78125 23.925781-9.933594l16.765626 16.765625 10.605468-10.609375-16.765625-16.765625c5.152344-6.871094 8.660157-15.039063 9.933594-23.921875h23.683594v-15h-23.683594c-1.273437-8.882813-4.78125-17.054688-9.933594-23.925782l16.765625-16.765624-10.609375-10.605469-16.761719 16.761719c-6.875-5.148438-15.042968-8.65625-23.925781-9.933594v-23.683594h-15v23.683594c-8.882812 1.277344-17.054687 4.785156-23.925781 9.933594l-16.765625-16.765626-10.605469 10.609376 16.765625 16.765624c-5.152343 6.871094-8.660156 15.042969-9.9375 23.925782zm75.652343-30.003906c20.679688 0 37.5 16.824218 37.5 37.503906 0 20.675781-16.820312 37.5-37.5 37.5-20.679687 0-37.5-16.824219-37.5-37.5 0-20.679688 16.820313-37.503906 37.5-37.503906zm0 0"/>
  <path d="m353.304688 396.382812 27.46875 7.359376 3.882812-14.488282-23.226562-6.222656 6.222656-23.222656-14.488282-3.882813-7.359374 27.46875-17.226563 9.945313v-19.890625l20.109375-20.109375-10.609375-10.605469-17 17-17.003906-17-10.605469 10.605469 20.109375 20.109375v19.890625l-17.226563-9.945313-7.359374-27.46875-14.488282 3.882813 6.222656 23.222656-23.226562 6.222656 3.882812 14.488282 27.46875-7.359376 17.226563 9.945313-17.226563 9.945313-27.46875-7.359376-3.882812 14.488282 23.226562 6.222656-6.222656 23.226562 14.488282 3.882813 7.359374-27.46875 17.226563-9.945313v19.890626l-20.109375 20.109374 10.605469 10.605469 17.003906-17.003906 17 17.003906 10.609375-10.605469-20.109375-20.109374v-19.890626l17.226563 9.945313 7.359374 27.46875 14.488282-3.882813-6.222656-23.226562 23.226562-6.222656-3.882812-14.488282-27.46875 7.359376-17.226563-9.945313zm0 0"/>
  <path d="m137.878906 459.695312 221.046875-221.050781 10.609375 10.609375-221.050781 221.046875zm0 0"/>
</svg>